<svg width="64" height="64" viewBox="0 0 64 64" fill="none" xmlns="http://www.w3.org/2000/svg">
<path d="M14.592 54V16.88H1.536V9.2H36.096V16.88H23.04V54H14.592Z" fill="#04080F"/>
<path d="M42.088 54.896C37.48 54.896 33.8107 53.6373 31.08 51.12C28.392 48.6027 27.048 45.0827 27.048 40.56V36.336H35.496V40.56C35.496 42.5653 36.0507 44.144 37.16 45.296C38.2693 46.4053 39.8267 46.96 41.832 46.96C43.7093 46.96 45.16 46.4053 46.184 45.296C47.2507 44.1867 47.784 42.608 47.784 40.56V16.88H40.104V9.2H61.352V16.88H56.232V40.56C56.232 45.2107 54.9733 48.7733 52.456 51.248C49.9387 53.68 46.4827 54.896 42.088 54.896Z" fill="#04080F"/>
</svg>
